<svg width="18" height="11" viewBox="0 0 18 11" fill="none" xmlns="http://www.w3.org/2000/svg">
<path d="M14.8035 1.72707C14.8035 0.899239 14.0532 0.221924 13.1363 0.221924H10.6355V1.72707H13.1363V3.72138L10.2354 6.99507H7.3011V3.23221H3.96671C2.12446 3.23221 0.632324 4.57932 0.632324 6.2425V8.50022H2.29952C2.29952 9.74949 3.41654 10.7579 4.80031 10.7579C6.18408 10.7579 7.3011 9.74949 7.3011 8.50022H11.0356L14.8035 4.24819V1.72707ZM4.80031 9.25279C4.34183 9.25279 3.96671 8.91413 3.96671 8.50022H5.63391C5.63391 8.91413 5.25879 9.25279 4.80031 9.25279Z" fill="black"/>
<path d="M7.30106 0.974487H3.13306V2.47961H7.30106V0.974487Z" fill="black"/>
<path d="M14.8035 6.24243C13.4198 6.24243 12.3027 7.25087 12.3027 8.50014C12.3027 9.7494 13.4198 10.7578 14.8035 10.7578C16.1873 10.7578 17.3043 9.7494 17.3043 8.50014C17.3043 7.25087 16.1873 6.24243 14.8035 6.24243ZM14.8035 9.25271C14.345 9.25271 13.9699 8.91405 13.9699 8.50014C13.9699 8.08622 14.345 7.74757 14.8035 7.74757C15.262 7.74757 15.6371 8.08622 15.6371 8.50014C15.6371 8.91405 15.262 9.25271 14.8035 9.25271Z" fill="black"/>
</svg>
